<svg xmlns:rdf="http://www.w3.org/1999/02/22-rdf-syntax-ns#" xmlns="http://www.w3.org/2000/svg" height="99.993" width="100" version="1.1" xmlns:cc="http://creativecommons.org/ns#" xmlns:dc="http://purl.org/dc/elements/1.1/">
<defs>
<linearGradient id="linearGradient3820" y2="191.89" gradientUnits="userSpaceOnUse" y1="439.27" x2="216.94" x1="216.94">
<stop stop-color="#000" offset="0"/>
<stop stop-color="#565656" offset="0.5"/>
<stop stop-color="#7e7e7e" offset="1"/>
</linearGradient>
</defs>
<metadata>
<rdf:RDF>
<cc:Work rdf:about="">
<dc:format>image/svg+xml</dc:format>
<dc:type rdf:resource="http://purl.org/dc/dcmitype/StillImage"/>
<dc:title/>
</cc:Work>
</rdf:RDF>
</metadata>
<g transform="matrix(0.21586489,0,0,0.21586489,-103.34792,-61.587041)">
<path d="m774.26,460.15c0,101.14-37.398,183.12-83.531,183.12s-83.531-81.988-83.531-183.12c0-101.14,37.398-183.12,83.531-183.12s83.531,81.988,83.531,183.12z" fill-opacity="0.43103446" transform="matrix(0.84810534,0.52982764,-0.52982764,0.84810534,358.22275,-294.42182)" stroke="#000" stroke-miterlimit="4" stroke-dasharray="none" stroke-width="6.80000019" fill="#5fd7ff"/>
<path fill="#f1c90a" d="m201.09,190.44c-1.7606,0.0173-3.5329,0.0649-5.3125,0.125-2.9592,0.0819-5.9024,0.26965-8.8438,0.5v24.281c2.9014-0.23547,5.8604-0.39251,8.8438-0.5,5.1188-0.15933,10.139-0.0193,15.031,0.375,4.8926,0.3943,9.6586,1.0308,14.312,1.9062,4.6539,0.87544,9.191,1.9972,13.594,3.2812,4.4027,1.2841,8.6734,2.7548,12.812,4.375,4.1391,1.6202,8.1371,3.3661,12,5.25s7.582,3.8936,11.156,5.9688c3.5742,2.0751,7.0082,4.2124,10.281,6.4062,3.273,2.1938,6.3844,4.4475,9.3438,6.6875s5.773,4.4738,8.4062,6.6875,5.0805,4.4163,7.375,6.5312c4.589,4.2299,8.4969,8.1627,11.656,11.562,3.1594,3.3998,5.5891,6.2601,7.2188,8.25s2.4688,3.125,2.4688,3.125-3.6173,5.0368-10.031,12.594c-3.207,3.7785-7.13,8.1832-11.625,12.906-4.495,4.7231-9.5837,9.7745-15.156,14.812-2.7863,2.519-5.6712,5.0204-8.6875,7.5s-6.155,4.9197-9.375,7.2812-6.5402,4.6478-9.9375,6.8125c-3.3974,2.1648-6.8578,4.2045-10.406,6.0938-3.5484,1.8892-7.1705,3.6212-10.844,5.1562-3.6732,1.535-7.4157,2.898-11.188,4-3.7718,1.102-7.5935,1.9409-11.438,2.5312-3.844,0.59039-7.7038,0.90625-11.594,0.90625-2.238,0-4.4074-0.076-6.5312-0.25-2.1238-0.17404-4.2046-0.44852-6.2188-0.78125-4.0284-0.66546-7.8515-1.6044-11.469-2.8125v23.594c3.5781,0.63986,7.2784,1.1532,11.094,1.5,3.8154,0.34681,7.7686,0.53125,11.844,0.53125,2.7749,0,5.547-0.11636,8.3125-0.3125s5.4989-0.46413,8.25-0.84375,5.5183-0.85579,8.25-1.4062c2.7317-0.55046,5.449-1.1976,8.1562-1.9062,5.4146-1.4173,10.775-3.1197,16.062-5.0938,5.2871-1.974,10.505-4.1954,15.625-6.625,5.1198-2.4296,10.119-5.0911,15.031-7.875,4.9126-2.7839,9.7096-5.713,14.375-8.75s9.2153-6.1549,13.594-9.3438c4.3784-3.1888,8.6047-6.448,12.656-9.6875,4.0515-3.2395,7.9403-6.4674,11.625-9.6562s7.1595-6.338,10.438-9.375c6.556-6.074,12.248-11.735,16.938-16.594,4.6898-4.8592,8.3705-8.9155,10.875-11.75s3.8438-4.4375,3.8438-4.4375-1.1541-1.5356-3.4062-4.1875c-2.2522-2.6519-5.5994-6.4398-9.9688-10.969-4.3693-4.529-9.7736-9.8064-16.125-15.438-3.1757-2.8156-6.5728-5.7104-10.219-8.6562-3.6459-2.9458-7.5257-5.927-11.625-8.9062s-8.433-5.9593-12.969-8.875c-4.5357-2.9157-9.2947-5.7758-14.25-8.5312s-10.111-5.408-15.469-7.9062-10.912-4.8246-16.656-6.9688c-5.7439-2.1442-11.668-4.088-17.781-5.7812-6.1128-1.6933-12.41-3.1357-18.875-4.2812-3.2324-0.57276-6.4952-1.0823-9.8125-1.5-3.3173-0.41766-6.6937-0.74955-10.094-1-3.4-0.25045-6.8318-0.42887-10.312-0.5-1.7403-0.0356-3.4894-0.0485-5.25-0.0312zm-14.15,195.15c-4.7769-0.8507-9.3337-1.9516-13.688-3.2812-4.3538-1.3297-8.4901-2.8873-12.438-4.625-3.9474-1.7377-7.6924-3.6752-11.25-5.75s-6.9406-4.2841-10.125-6.625-6.1723-4.8077-9-7.3438c-2.8277-2.536-5.4811-5.1522-7.9688-7.8125-2.4877-2.6602-4.8045-5.349-6.9688-8.0625-2.1642-2.7135-4.1739-5.4292-6.0312-8.125-1.8574-2.6958-3.5891-5.3928-5.1562-8s-2.9878-5.1462-4.2812-7.5938c-2.5869-4.8952-4.6269-9.3877-6.2188-13.219-1.5919-3.8311-2.7392-6.9882-3.4688-9.1875-0.72955-2.1993-1.0625-3.4375-1.0625-3.4375s2.2945-2.553,6.6875-6.4688c2.1965-1.9579,4.9344-4.2512,8.1562-6.75s6.9265-5.1898,11.125-7.9375,8.8735-5.5453,14-8.25c2.5633-1.3523,5.2451-2.6819,8.0312-3.9688,2.7862-1.2868,5.6845-2.5339,8.6875-3.7188,3.003-1.1848,6.13-2.3287,9.3438-3.375,3.2137-1.0463,6.5191-2.0037,9.9375-2.875,3.4184-0.87128,6.9455-1.6527,10.562-2.3125,3.617-0.65976,7.3155-1.2132,11.125-1.625v-29.906c-5.6539,0.42999-11.136,1.1012-16.438,1.9688-5.301,0.8676-10.396,1.913-15.344,3.1562-4.948,1.2433-9.7487,2.6617-14.344,4.2188-4.595,1.557-9.0081,3.2536-13.25,5.0625-4.2419,1.8088-8.2987,3.7513-12.188,5.75-3.8888,1.9987-7.5895,4.0608-11.125,6.1875s-6.9115,4.3073-10.094,6.5c-3.1823,2.1927-6.1711,4.3969-9,6.5938-2.8289,2.1968-5.4932,4.3923-7.9688,6.5312-2.4755,2.139-4.7842,4.2308-6.9062,6.25-4.2441,4.0384-7.7638,7.781-10.594,10.969-2.8299,3.1877-4.9598,5.8147-6.375,7.6562-1.4152,1.8416-2.125,2.875-2.125,2.875s0.54311,1.7402,1.6875,4.8125,2.8992,7.4889,5.3125,12.812c1.2066,2.6618,2.5778,5.5543,4.125,8.625s3.2529,6.3105,5.1562,9.6875,4.0062,6.8881,6.2812,10.469c2.275,3.5807,4.744,7.2558,7.4062,10.938,2.6623,3.6817,5.4974,7.3824,8.5625,11.062,3.0651,3.6801,6.3603,7.3303,9.8438,10.906,3.4835,3.5759,7.1764,7.0684,11.094,10.438,3.9174,3.3691,8.0394,6.5966,12.406,9.6562,4.3669,3.0597,8.9805,5.9461,13.812,8.5938,2.416,1.3238,4.8711,2.6109,7.4062,3.8125,2.5352,1.2016,5.1562,2.3398,7.8125,3.4062,2.6563,1.0665,5.3456,2.0502,8.125,2.9688,2.7794,0.91856,5.6268,1.7422,8.5312,2.5,2.9044,0.75782,5.8749,1.447,8.9062,2.0312,3.0314,0.58426,6.121,1.0709,9.2812,1.4688v-27.656zm0,27.656,0,25.781c3.3022,0.31405,6.6442,0.56706,10.031,0.75,3.387,0.18294,6.8266,0.28125,10.344,0.28125,4.542,0,9.3054-0.12328,14.25-0.40625s10.059-0.72903,15.344-1.2812c5.2844-0.55222,10.751-1.2235,16.312-2.0312,5.5612-0.80774,11.225-1.7317,17-2.7812,5.7752-1.0495,11.636-2.2224,17.562-3.5,5.9263-1.2776,11.923-2.6643,17.938-4.1562,6.0146-1.4919,12.054-3.0887,18.094-4.7812,6.0399-1.6926,12.091-3.4956,18.094-5.375,6.0024-1.8794,11.973-3.8224,17.875-5.875s11.73-4.1942,17.469-6.4062c5.7387-2.212,11.362-4.5173,16.875-6.875,5.5126-2.3577,10.901-4.7915,16.125-7.2812,5.2235-2.4897,10.285-5.017,15.156-7.625,4.8716-2.608,9.5744-5.2875,14.031-8,4.4568-2.7125,8.6771-5.478,12.656-8.2812,3.9792-2.8033,7.7176-5.6509,11.156-8.5312-1.0084-1.0225-2.5102-2.1913-4.375-3.5s-4.1104-2.739-6.5938-4.25c-4.9666-3.0219-10.924-6.3608-16.938-9.6875-6.0134-3.3266-12.093-6.6345-17.25-9.5938-2.5786-1.4796-4.9297-2.8945-6.9375-4.1562s-3.6446-2.384-4.8438-3.3438c-7.2343,6.2412-14.51,12.348-21.844,18.281-7.3342,5.9329-14.734,11.698-22.25,17.188-7.5161,5.4898-15.157,10.713-22.938,15.625-3.89,2.4559-7.8098,4.8388-11.781,7.125-3.9714,2.2862-7.9994,4.4942-12.062,6.5938-4.063,2.0996-8.1476,4.1039-12.312,6-4.165,1.8961-8.4104,3.668-12.688,5.3438-4.2771,1.6758-8.6005,3.2489-13,4.6875s-8.8741,2.7529-13.406,3.9375c-4.5322,1.1846-9.1374,2.2425-13.812,3.1562-4.6751,0.91372-9.4217,1.6865-14.25,2.3125s-9.727,1.0848-14.719,1.4062c-4.9917,0.32142-10.053,0.5-15.219,0.5-3.3043,0-6.5413-0.1308-9.7188-0.34375s-6.3157-0.52029-9.375-0.90625zm0-168,0,25.938c3.9862,0.48246,7.5791,1.1208,10.844,1.9375,3.2647,0.81671,6.2138,1.7879,8.9062,2.9688,2.6925,1.1809,5.1366,2.5501,7.4062,4.125s4.3476,3.3761,6.3438,5.375c1.9961,1.9989,3.9093,4.2034,5.7812,6.6562s3.7279,5.1571,5.625,8.0938c3.7941,5.8733,7.772,12.731,12.562,20.719l42.66-35.95s-1.9477-2.5786-5.6875-6.4062c-1.8699-1.9138-4.1902-4.139-6.9375-6.5312-2.7473-2.3923-5.9138-4.9482-9.5-7.5s-7.582-5.1077-11.969-7.5c-2.1934-1.1961-4.4887-2.341-6.875-3.4375-2.3864-1.0965-4.863-2.1368-7.4375-3.0938-2.5745-0.95691-5.2422-1.8163-8-2.5938-2.7578-0.77749-5.5949-1.473-8.5312-2.0312-2.9364-0.5582-5.9836-0.98221-9.0938-1.2812-3.1101-0.29904-6.2834-0.46875-9.5625-0.46875-2.8512,0-5.6591,0.10593-8.4062,0.28125s-5.4506,0.40596-8.125,0.6875zm0,25.938c-0.0384,0-0.0559-0.0312-0.0937-0.0312-1.9998-0.23963-3.9968-0.35205-5.9375-0.34375-1.9406,0.008-3.846,0.14982-5.7188,0.375-1.8727,0.22518-3.704,0.52651-5.5,0.9375s-3.5395,0.90301-5.25,1.4688c-3.421,1.1315-6.6612,2.5609-9.6875,4.125s-5.8448,3.283-8.4062,5.0312c-2.5614,1.7483-4.8799,3.5348-6.9062,5.2188-2.0264,1.6839-3.7664,3.2539-5.1875,4.625-2.8422,2.7422-4.4062,4.625-4.4062,4.625s0.89051,3.1204,2.875,8.0625c0.99225,2.471,2.2666,5.3919,3.8438,8.5938,1.5771,3.2018,3.4351,6.6851,5.6562,10.281,2.2211,3.5962,4.7944,7.3147,7.7188,10.969,1.4622,1.827,3.0072,3.6591,4.6562,5.4375s3.4067,3.4998,5.25,5.1875,3.7675,3.32,5.8125,4.875,4.2146,3.0573,6.4688,4.4375c2.2541,1.3802,4.5919,2.6491,7.0625,3.8125s5.0556,2.2206,7.75,3.125v-90.812z" transform="translate(478.76207,296.88469)"/>
<path d="M186.94,191.06c-100.19,8.06-186.94,92.91-186.94,92.91s49.129,142.06,186.94,155.06v-25.75c-101.13-12.73-135.75-124.19-135.75-124.19s45.287-66.87,135.75-73.75v-24.281zm0,24.281,0,29.938c5.3487-0.56308,10.829-1,16.531-1,52.465,0,83.625,40.844,83.625,40.844l-42.688,35.938c-19.162-31.952-25.58-46.015-57.469-49.875v90.812c7.2345,2.4161,15.267,3.875,24.219,3.875,62.239,0,120.28-80.625,120.28-80.625s-53.756-72.955-135.66-70.406c-2.9833,0.10749-5.9424,0.26453-8.8438,0.5zm0,146.66c-43.11-14.47-57.09-64.78-57.09-64.78s25.003-29.897,57-26.062c0.0379,0,0.0554,0.0312,0.0937,0.0312v-25.906c-60.951,6.588-97.625,47.25-97.625,47.25s21.195,79.451,97.625,93.062v-23.594zm0,23.594,0,27.688c6.1186,0.77193,12.485,1.2188,19.094,1.2188,82.647,0,142.41-42.226,200.28-92.156,9.1832,7.3505,45.551,24.786,55.719,33.438l-78.125-71.812s-85.235,103.66-174.03,103.66c-8.1503,0-15.781-0.75152-22.938-2.0312zm275.09-29.812,1.2188,1.125c-0.34446-0.34927-0.76523-0.7391-1.2188-1.125z" fill-rule="evenodd" transform="translate(478.76207,296.88469)" fill="url(#linearGradient3820)"/>
<path d="m774.26,460.15c0,101.14-37.398,183.12-83.531,183.12s-83.531-81.988-83.531-183.12c0-101.14,37.398-183.12,83.531-183.12s83.531,81.988,83.531,183.12z" fill-opacity="0.43103446" transform="matrix(0.61513297,0.78842338,-0.78842338,0.61513297,681.20729,-331.52884)" stroke="#000" stroke-miterlimit="4" stroke-dasharray="none" stroke-width="6.80000019" fill="#5fd7ff"/>
</g>
</svg>
